<?xml version="1.0" encoding="UTF-8" standalone="no"?>
<!-- Created with Inkscape (http://www.inkscape.org/) -->

<svg
   width="256"
   height="256"
   viewBox="0 0 67.733332 67.733333"
   version="1.1"
   id="svg1"
   xml:space="preserve"
   sodipodi:docname="radioIcon.svg"
   inkscape:version="1.3 (0e150ed6c4, 2023-07-21)"
   inkscape:export-filename="radioIcon.png"
   inkscape:export-xdpi="96"
   inkscape:export-ydpi="96"
   xmlns:inkscape="http://www.inkscape.org/namespaces/inkscape"
   xmlns:sodipodi="http://sodipodi.sourceforge.net/DTD/sodipodi-0.dtd"
   xmlns="http://www.w3.org/2000/svg"
   xmlns:svg="http://www.w3.org/2000/svg"><sodipodi:namedview
     id="namedview1"
     pagecolor="#505050"
     bordercolor="#ffffff"
     borderopacity="1"
     inkscape:showpageshadow="0"
     inkscape:pageopacity="0"
     inkscape:pagecheckerboard="1"
     inkscape:deskcolor="#d1d1d1"
     inkscape:document-units="mm"
     inkscape:zoom="2.096401"
     inkscape:cx="111.85837"
     inkscape:cy="161.70571"
     inkscape:window-width="1900"
     inkscape:window-height="1038"
     inkscape:window-x="1928"
     inkscape:window-y="30"
     inkscape:window-maximized="1"
     inkscape:current-layer="layer1" /><defs
     id="defs1" /><g
     inkscape:label="Layer 1"
     inkscape:groupmode="layer"
     id="layer1"><path
       style="fill:#37a033;fill-opacity:1;stroke:none;stroke-width:1.8714;stroke-linecap:round;stroke-linejoin:round;stroke-dasharray:none;stroke-opacity:1;paint-order:markers fill stroke"
       d="M 5.3941883,63.073481 C 3.4361322,62.691083 1.5521568,61.172555 0.6137625,59.220336 L 0.05593625,58.05985 0.01457823,41.049451 C -0.02246972,25.812079 -8.842456e-4,23.949295 0.22167887,23.177914 0.66520154,21.640691 1.6159319,20.348617 2.967748,19.44591 4.829163,18.202901 2.6848917,18.305717 28.584995,18.217626 L 51.698433,18.13901 18.139246,7.3095241 c 0.31826,-0.9303683 0.573676,-1.8841017 0.922255,-2.8038481 0.04399,-0.030399 42.554062,13.73609 43.679266,14.006024 2.130933,0.511203 3.939235,2.240339 4.69782,4.492168 0.314069,0.932292 0.317367,1.146983 0.276529,17.999763 L 67.67377,58.05985 67.115946,59.220336 C 66.148769,61.232429 64.284693,62.698445 62.198353,63.08782 61.15049,63.283382 6.3982052,63.269563 5.3941755,63.073492 Z M 34.172615,54.656632 c 1.44508,-0.747281 1.166937,-2.877652 -0.433751,-3.322233 -0.76755,-0.213182 -26.8160506,-0.217679 -27.5825062,-0.0047 -1.5213342,0.422615 -1.8601302,2.462913 -0.5424023,3.266465 0.4567962,0.278552 1.0486317,0.290605 14.2940355,0.291161 11.956908,5.03e-4 13.877711,-0.03053 14.264624,-0.230633 z m 19.848411,-1.691129 c 2.603252,-0.498086 4.859661,-1.738411 6.714152,-3.690712 1.283853,-1.351569 2.084504,-2.622498 2.677037,-4.249478 2.498032,-6.859087 -1.352808,-14.289495 -8.457516,-16.319237 -1.719604,-0.491273 -4.716996,-0.491273 -6.436599,0 -7.279077,2.079562 -11.080085,9.749727 -8.291512,16.731676 1.222729,3.061418 3.957171,5.74514 7.042794,6.912153 2.158354,0.816306 4.558734,1.035172 6.751644,0.615598 z M 34.576628,48.172481 c 0.445282,-0.445283 0.526086,-0.635043 0.526086,-1.235418 0,-0.5651 -0.0918,-0.812067 -0.451499,-1.214647 l -0.451506,-0.50532 H 19.964148 5.7285836 l -0.3969265,0.372895 c -0.7446712,0.699583 -0.7185728,1.887083 0.058553,2.664206 l 0.4443694,0.444371 h 14.1079815 14.10798 z m -0.404013,-5.894407 c 1.44508,-0.74728 1.166937,-2.877651 -0.433751,-3.322227 -0.76755,-0.213182 -26.8160506,-0.217679 -27.5825062,-0.0047 -1.5213342,0.422616 -1.8601302,2.462919 -0.5424023,3.266465 0.4567962,0.278553 1.0486317,0.290611 14.2940355,0.291167 11.956908,4.97e-4 13.877711,-0.03059 14.264624,-0.230639 z m 0.404013,-6.48415 c 0.445282,-0.445283 0.526086,-0.635038 0.526086,-1.235413 0,-0.565088 -0.0918,-0.812084 -0.45147,-1.214646 l -0.45147,-0.50532 -13.999556,-0.04111 C 11.22739,32.771116 6.0558986,32.811351 5.7974951,32.909623 4.7056463,33.324741 4.4622118,35.068147 5.3814172,35.889459 l 0.481849,0.430528 H 19.956904 34.050541 Z m 0.07462,-6.245874 c 0.942339,-1.054735 0.395767,-2.654317 -1.018482,-2.980673 -0.859788,-0.198409 -26.7611075,-0.19355 -27.4764042,0.0053 -1.5215137,0.422662 -1.8597892,2.460691 -0.5424023,3.267839 0.4590804,0.281278 0.9910708,0.290518 14.5311735,0.252482 l 14.054645,-0.03947 z"
       id="path1"
       sodipodi:nodetypes="cscssssccsssscsscccscssccssssssssssscccsscccscscssccssscccscccscscsscc"
       inkscape:export-filename="radioIcon.png"
       inkscape:export-xdpi="96"
       inkscape:export-ydpi="96" /><g
       id="g4371"
       transform="matrix(1.6441143,0,0,1.6441143,42.731181,-55.31705)"><g
         id="g7475"
         transform="matrix(0.5652746,0,0,0.5652746,14.887007,9.0980167)"><path
           id="path6059"
           style="fill:#37a033;fill-opacity:1;fill-rule:nonzero;stroke:none;stroke-width:0.0139664"
           d="m -18.266314,78.025945 c -0.222065,0 -0.405984,0.184478 -0.405984,0.405984 v 3.322154 c 0,0.221507 0.183919,0.405984 0.405984,0.405984 h 3.320427 c 0.222066,0 0.405983,-0.184477 0.405983,-0.405984 v -3.322154 c 0,-0.221506 -0.183917,-0.405984 -0.405983,-0.405984 z m 4.944361,0 c -0.222066,0 -0.405984,0.184478 -0.405984,0.405984 v 3.322154 c 0,0.221507 0.183918,0.405984 0.405984,0.405984 h 3.3221547 c 0.2206687,0 0.4059835,-0.184477 0.4059835,-0.405984 v -3.322154 c 0,-0.221506 -0.1853148,-0.405984 -0.4059835,-0.405984 z m -9.892178,4.946089 c -0.220669,0 -0.404256,0.184477 -0.404256,0.405983 v 3.322155 c 0,0.221088 0.183587,0.405984 0.404256,0.405984 h 3.323882 c 0.220669,0 0.405984,-0.184896 0.405984,-0.405984 v -3.322155 c 0,-0.221506 -0.185315,-0.405983 -0.405984,-0.405983 z m 4.947817,0 c -0.222065,0 -0.405984,0.184477 -0.405984,0.405983 v 3.322155 c 0,0.221088 0.183919,0.405984 0.405984,0.405984 h 3.320427 c 0.222066,0 0.405983,-0.184896 0.405983,-0.405984 v -3.322155 c 0,-0.221506 -0.183917,-0.405983 -0.405983,-0.405983 z m -4.947817,4.946089 c -0.220669,0 -0.404256,0.184338 -0.404256,0.405983 v 3.320428 c 0,0.221645 0.183587,0.405983 0.404256,0.405983 h 3.323882 c 0.220669,0 0.405984,-0.184338 0.405984,-0.405983 v -3.320428 c 0,-0.221645 -0.185315,-0.405983 -0.405984,-0.405983 z m 4.947817,0 c -0.222065,0 -0.405984,0.184338 -0.405984,0.405983 v 3.320428 c 0,0.221645 0.183919,0.405983 0.405984,0.405983 h 3.320427 c 0.222066,0 0.405983,-0.184338 0.405983,-0.405983 v -3.320428 c 0,-0.221645 -0.183917,-0.405983 -0.405983,-0.405983 z m 4.944361,0 c -0.222066,0 -0.405984,0.184338 -0.405984,0.405983 v 3.320428 c 0,0.221645 0.183918,0.405983 0.405984,0.405983 h 3.3221547 c 0.2206687,0 0.4059835,-0.184338 0.4059835,-0.405983 v -3.320428 c 0,-0.221645 -0.1853148,-0.405983 -0.4059835,-0.405983 z m -9.892178,4.944361 c -0.220669,0 -0.404256,0.184477 -0.404256,0.405984 v 3.322154 c 0,0.221646 0.183587,0.405984 0.404256,0.405984 h 3.323882 c 0.220669,0 0.405984,-0.184338 0.405984,-0.405984 v -3.322154 c 0,-0.221507 -0.185315,-0.405984 -0.405984,-0.405984 z m 4.947817,0 c -0.222065,0 -0.405984,0.184477 -0.405984,0.405984 v 3.322154 c 0,0.221646 0.183919,0.405984 0.405984,0.405984 h 3.320427 c 0.222066,0 0.405983,-0.184338 0.405983,-0.405984 v -3.322154 c 0,-0.221507 -0.183917,-0.405984 -0.405983,-0.405984 z" /><path
           d="m -19.263905,80.093003 c 0,1.255019 -0.9972,2.251521 -2.251381,2.251521 -1.254182,0 -2.251382,-0.996502 -2.251382,-2.251521 0,-1.254601 0.9972,-2.251102 2.251382,-2.251102 1.217869,0 2.251381,0.996501 2.251381,2.251102"
           style="fill:#cf181f;fill-opacity:1;fill-rule:nonzero;stroke:none;stroke-width:0.0139664"
           id="path6077" /></g></g></g></svg>
