<?xml version="1.0" encoding="UTF-8" standalone="no"?>
<!-- Created with Inkscape (http://www.inkscape.org/) -->

<svg
   width="135.3419mm"
   height="135.34193mm"
   viewBox="0 0 135.3419 135.34193"
   version="1.1"
   id="svg1"
   xml:space="preserve"
   xmlns="http://www.w3.org/2000/svg"
   xmlns:svg="http://www.w3.org/2000/svg"><defs
     id="defs1" /><g
     id="layer1"
     transform="translate(-42.540684,-70.085153)"><g
       id="g1"
       transform="translate(5.1457651,-10.675046)"><rect
         style="fill:none;fill-opacity:1;stroke:#ffffff;stroke-width:0.0401017;stroke-linecap:round;stroke-linejoin:round"
         id="rect9"
         width="135.30182"
         height="135.30182"
         x="37.41497"
         y="80.780251" /><path
         style="display:inline;fill:#a6bccc;stroke-width:1.17442"
         d="m 90.22748,196.58542 v -3.38968 h 14.81211 14.8121 v 3.38968 3.38967 h -14.8121 -14.81211 z"
         id="path4" /><path
         style="display:inline;fill:#cf181f;fill-opacity:1;stroke-width:1.16702"
         d="m 91.169242,210.13688 c -0.677103,-0.85171 -0.755803,-1.20467 -0.755803,-3.38968 v -2.43896 h 14.626151 14.62614 v 2.43896 c 0,2.18501 -0.0787,2.53797 -0.7558,3.38968 l -0.75581,0.95071 H 105.03959 91.925046 Z"
         id="path5" /><path
         id="path3"
         style="display:inline;fill:#37a033;fill-opacity:1;stroke-width:1.00781"
         d="m 92.19135,85.509098 c -0.981917,-0.0097 -2.353553,0.372643 -4.889624,1.56993 l -2.405022,1.135848 c -3.649812,1.723085 -1.967288,1.014785 -4.918046,3.291272 -0.207442,0.160039 -1.794412,1.141181 -3.610632,2.893363 l -2.441195,2.354895 c 1.641591,6.266514 -9.849031,10.126744 -8.123535,32.783524 0.659365,8.65785 2.370247,14.53441 5.840471,20.06183 2.130806,3.39398 3.887442,5.46322 9.538952,11.23549 6.309288,6.44412 8.283418,9.28297 9.203056,13.23382 0.166277,0.71434 0.348447,1.4499 0.404627,1.63452 0.08076,0.26564 3.070237,0.32115 14.287498,0.26665 l 14.1857,-0.0692 0.34468,-1.51774 c 0.95325,-4.19767 2.86706,-6.98953 9.28832,-13.54801 7.01943,-7.16942 9.39651,-10.24693 11.60395,-15.02492 3.65078,-7.90212 4.91006,-19.62694 3.06648,-28.5502 -1.55063,-7.50539 -5.06307,-13.89943 -10.78694,-19.638593 -5.8928,-5.908529 -11.97064,-9.188469 -20.27422,-10.940418 -11.21511,-2.366248 -15.348992,0.08452 -19.433954,-1.047481 -0.269483,-0.07468 -0.553261,-0.12132 -0.880566,-0.12454 z m 13.55266,17.065112 c 4.82143,-0.0163 9.33465,1.46988 12.51242,5.25032 5.08441,6.04871 5.96119,11.39624 4.90926,16.48065 -1.05196,5.08442 -4.99692,8.1525 -7.80211,11.30835 -2.80519,3.15584 -4.73347,6.75021 -5.17178,9.02943 -0.43831,2.27922 -2.27931,2.36663 -1.49035,5.43481 0.78896,3.06818 2.54182,7.45121 0.78859,8.4155 -1.75324,0.96428 -6.04834,3.68224 -8.76588,0.43874 -2.717533,-3.24351 1.92853,-9.02933 1.66553,-10.43193 -0.263,-1.4026 -5.610692,-4.38307 -1.84123,-11.57138 3.76949,-7.18831 10.60761,-10.08145 11.57191,-14.3769 0.96427,-4.29546 -0.70162,-7.80201 -3.7698,-9.20461 -3.06819,-1.4026 -7.97695,3.7e-4 -9.028906,2.10427 -1.051931,2.10389 -1.052059,7.80186 -2.717664,9.37979 -1.665578,1.57792 -5.259709,1.40244 -6.749975,-0.0879 -1.48888,-1.48888 -2.97793,-4.0276 -2.980697,-4.03232 0.0035,-0.021 2.372486,-14.2031 10.081038,-16.65583 2.892864,-0.92045 5.896784,-1.47128 8.789644,-1.48104 z" /><path
         style="display:inline;fill:#6b8faa;stroke-width:1.09859"
         d="m 84.565045,187.89463 c -1.155298,-0.76157 -1.595725,-1.65077 -1.607976,-3.24642 -0.01158,-1.50856 0.661277,-2.60433 2.035611,-3.31503 1.247934,-0.64533 38.84186,-0.64533 40.0898,0 1.92939,0.99773 2.6411,3.38905 1.60498,5.3927 -0.92518,1.7891 -0.24325,1.73468 -21.70811,1.73258 -18.846993,-0.002 -19.59305,-0.0224 -20.414305,-0.56383 z"
         id="path2" /><path
         style="display:inline;fill:#ffffff"
         d="m 44.125928,162.04173 c -1.479763,-0.80303 -1.741677,-2.78134 -0.535819,-4.04717 0.88657,-0.93066 11.589853,-7.11878 12.695474,-7.3399 0.916632,-0.18333 2.294654,0.42794 2.708661,1.20152 0.430319,0.80406 0.325285,2.53941 -0.190594,3.14895 -0.779183,0.92065 -12.377753,7.45033 -13.212779,7.43844 -0.409195,-0.006 -1.06842,-0.18665 -1.464943,-0.40184 z m 113.450212,-3.14306 c -3.33775,-1.94297 -6.22502,-3.74653 -6.41614,-4.00791 -0.41427,-0.56654 -0.45764,-2.31975 -0.0751,-3.03458 0.414,-0.77358 1.79202,-1.38485 2.70866,-1.20152 1.10562,0.22112 11.8089,6.40924 12.69547,7.3399 0.77722,0.81587 0.97441,2.18114 0.45518,3.15135 -0.35706,0.66717 -1.62772,1.31119 -2.55871,1.29685 -0.45664,-0.007 -3.06823,-1.36629 -6.80939,-3.54409 z M 41.059601,127.39766 c -0.95426,-0.80296 -1.226861,-1.74787 -0.841289,-2.91617 0.51311,-1.55474 1.057378,-1.71482 5.830237,-1.71482 h 4.262994 l 0.773398,0.7734 c 1.089077,1.08907 1.089077,2.65579 0,3.74487 l -0.773398,0.7734 h -4.233385 c -4.128263,0 -4.252883,-0.0164 -5.018557,-0.66068 z m 117.934629,-0.11272 c -0.60656,-0.60656 -0.7734,-1.01049 -0.7734,-1.87244 0,-0.86195 0.16684,-1.26588 0.7734,-1.87243 l 0.7734,-0.7734 h 4.26299 c 4.77286,0 5.31713,0.16008 5.83024,1.71482 0.38557,1.1683 0.11297,2.11321 -0.84129,2.91617 -0.76567,0.64427 -0.89029,0.66068 -5.01856,0.66068 h -4.23338 z M 55.845887,100.08608 c -1.278366,-0.5046 -11.898634,-6.826621 -12.388069,-7.374358 -0.895094,-1.001717 -0.816671,-2.572731 0.178084,-3.567487 1.39094,-1.390939 1.988439,-1.207648 8.799464,2.699344 3.329699,1.910008 6.228893,3.722438 6.442652,4.027622 0.509684,0.727676 0.496218,2.408256 -0.02568,3.204773 -0.582248,0.888623 -2.058045,1.384456 -3.006451,1.010106 z M 152.4,99.994017 c -1.61054,-0.656319 -2.15959,-3.036424 -0.99219,-4.301079 0.32742,-0.3547 3.22424,-2.147277 6.43737,-3.983504 6.58569,-3.763572 7.21266,-3.950625 8.59809,-2.565199 0.99475,0.994756 1.07318,2.56577 0.17808,3.567487 -0.73015,0.817126 -11.92978,7.289388 -12.87767,7.442008 -0.37522,0.0604 -0.97988,-0.0115 -1.34368,-0.159713 z"
         id="path1" /><path
         style="display:inline;fill:#000000"
         d="m 92.004747,215.88272 c -3.863044,-0.93345 -6.229531,-4.02228 -6.482637,-8.46138 l -0.132524,-2.32427 -1.162536,-0.29273 c -1.468391,-0.36975 -2.300334,-1.53176 -2.095761,-2.92726 0.173692,-1.18484 1.449633,-2.38125 2.539555,-2.38125 h 0.789575 v -3.12185 -3.12184 l -0.910037,-0.32908 c -1.314744,-0.47542 -3.352214,-2.41311 -4.259271,-4.05069 -0.722106,-1.30367 -0.783816,-1.62339 -0.783816,-4.06091 0,-2.27262 0.09154,-2.83244 0.648927,-3.96875 0.78731,-1.60503 2.71335,-3.54227 4.178784,-4.20309 l 1.079212,-0.48665 -0.403282,-1.3593 c -0.998362,-3.36507 -2.082345,-4.78881 -9.199391,-12.08285 -5.982334,-6.1311 -8.115894,-8.91324 -10.443415,-13.61811 -2.386179,-4.82344 -3.582273,-8.86145 -4.349644,-14.68437 -1.778353,-13.49441 0.458629,-24.10314 7.202039,-34.15517 2.936158,-4.376768 4.224576,-5.270806 6.127395,-4.251822 0.634618,0.339846 1.029408,0.803618 1.254503,1.473707 0.421305,1.254184 0.161507,1.841704 -2.285831,5.169295 -3.204441,4.357 -5.473376,9.57934 -6.615865,15.22753 -1.860282,9.19678 -0.197335,21.72828 3.889668,29.31145 2.228091,4.13407 4.465727,6.94657 10.2427,12.87411 6.990052,7.17223 8.78802,9.7859 9.702659,14.10454 l 0.322206,1.52135 h 14.17994 14.17995 l 0.29461,-1.38906 c 0.93683,-4.41704 2.69685,-7.03361 9.20997,-13.69219 6.63466,-6.78283 8.94891,-9.71974 11.22264,-14.24212 3.06489,-6.09598 4.76271,-16.27983 4.02582,-24.14761 -1.06852,-11.4085 -6.59103,-21.37845 -15.59047,-28.145945 -9.14388,-6.876104 -21.05594,-9.363535 -32.283511,-6.741319 -1.935138,0.451954 -2.300085,0.46926 -3.074275,0.145783 -2.415995,-1.009467 -2.3106,-4.105109 0.171213,-5.028839 3.489653,-1.298848 10.287943,-1.972969 15.348773,-1.521989 15.96002,1.422226 29.39412,10.538316 36.519,24.781009 3.2409,6.47856 4.99096,14.97618 4.57719,22.22499 -0.52555,9.20704 -1.84847,14.88016 -4.93586,21.16667 -2.28295,4.64851 -4.453,7.49684 -10.17712,13.35813 -7.26357,7.43764 -8.46822,9.00803 -9.45088,12.32021 l -0.39656,1.33667 1.43834,0.75306 c 1.60818,0.84199 2.96579,2.28252 3.85857,4.09423 0.49856,1.01172 0.59658,1.6453 0.59658,3.85645 0,2.43752 -0.0617,2.75724 -0.78382,4.06091 -0.90706,1.63758 -2.94453,3.57527 -4.25927,4.05069 l -0.91004,0.32908 v 3.12184 3.12185 h 0.78958 c 1.08992,0 2.36586,1.19641 2.53955,2.38125 0.20457,1.3955 -0.62737,2.55751 -2.09576,2.92726 l -1.16254,0.29273 -0.13252,2.32427 c -0.22016,3.86124 -1.83114,6.43071 -4.96539,7.91965 l -1.45521,0.6913 -12.56771,0.0456 c -6.912237,0.0251 -13.01604,-0.0627 -13.564003,-0.19515 z m 25.320613,-5.53238 c 1.10197,-0.41896 1.73502,-1.74789 1.73615,-3.64461 l 9.9e-4,-1.65365 H 105.03959 91.016669 l 9.89e-4,1.65365 c 0.0011,1.84329 0.627309,3.21749 1.654329,3.63039 0.81842,0.32904 23.790493,0.34229 24.653373,0.0142 z m 1.67995,-13.69878 -0.0751,-2.84427 H 105.03959 91.148961 l -0.0751,2.84427 -0.0751,2.84427 h 14.040819 14.04081 z m 4.56377,-8.93416 c 1.56446,-0.80902 2.13475,-3.58305 1.02631,-4.99221 -1.20922,-1.53728 -0.52899,-1.48561 -19.5558,-1.48561 -19.026821,0 -18.346585,-0.0517 -19.555809,1.48561 -0.383833,0.48796 -0.549666,1.07524 -0.543153,1.92351 0.01115,1.45245 0.412054,2.26185 1.463673,2.95508 0.747554,0.49279 1.426658,0.51155 18.582279,0.51323 15.40105,0.001 17.91121,-0.0525 18.5825,-0.39961 z m -20.65924,-25.34332 c -3.331802,-0.94201 -5.548412,-3.56783 -6.215128,-7.36251 -0.217154,-1.23596 0.487744,-4.02123 1.347201,-5.32321 l 0.654735,-0.99185 -0.671936,-1.06442 c -1.15386,-1.82783 -1.54219,-3.92201 -1.20171,-6.48056 0.701217,-5.26933 2.865184,-9.08002 8.712298,-15.34215 2.12876,-2.27986 3.31184,-3.76552 3.50886,-4.40625 0.44287,-1.44035 0.084,-2.76183 -1.09258,-4.02319 -1.0101,-1.08287 -1.04341,-1.09556 -2.87563,-1.09556 -1.69579,0 -1.92558,0.0676 -2.69741,0.79375 -1.04529,0.98339 -1.57229,2.17444 -1.57229,3.55345 0,2.93133 -2.443916,6.28906 -5.375935,7.38607 -3.147816,1.17774 -6.405855,0.46424 -8.796526,-1.92643 -2.007991,-2.00799 -2.591059,-3.73062 -2.423837,-7.16101 0.437041,-8.96542 6.9884,-16.80272 15.934838,-19.062624 2.4101,-0.6088 7.31256,-0.635841 9.525,-0.05254 7.47894,1.971794 12.82609,6.844574 15.23241,13.881084 0.83546,2.44302 0.88563,2.79609 0.89424,6.29241 0.0103,4.18382 -0.33446,5.8885 -1.83245,9.06043 -1.2922,2.73617 -2.15428,3.89141 -5.72757,7.67525 -3.38168,3.58093 -4.73017,5.36922 -4.73017,6.27285 0,1.06752 -0.78994,3.58657 -1.45513,4.64031 l -0.66817,1.05845 0.67172,1.06408 c 2.01023,3.18441 1.67488,7.2428 -0.82856,10.02722 -2.10186,2.33778 -5.4804,3.38874 -8.31627,2.58695 z m 3.63669,-5.72908 c 1.19626,-0.72941 1.62984,-2.23279 1.01663,-3.52503 -0.4134,-0.87117 -1.70071,-1.7783 -2.52357,-1.7783 -0.82287,0 -2.11018,0.90713 -2.52358,1.7783 -0.37568,0.79169 -0.39795,1.11001 -0.13832,1.97658 0.34116,1.13869 1.53449,2.06397 2.6619,2.06397 0.3638,0 1.04192,-0.23198 1.50694,-0.51552 z m 0.42464,-11.63696 c 0.57013,-0.54994 0.79341,-1.08579 0.96847,-2.32429 0.12513,-0.88526 0.45746,-2.12712 0.73852,-2.75968 0.64002,-1.44047 2.90745,-4.27623 6.39098,-7.99287 3.92028,-4.18263 5.30343,-7.26035 5.31237,-11.82092 0.008,-4.10364 -1.42645,-7.48397 -4.51025,-10.62826 -2.27893,-2.32364 -4.67079,-3.64499 -7.79656,-4.30711 -2.32593,-0.4927 -3.7443,-0.4927 -6.07023,0 -5.746792,1.21732 -10.473805,5.72777 -11.909104,11.36349 -0.481884,1.89213 -0.519195,4.09322 -0.08552,5.04504 0.597791,1.31201 2.43954,1.81509 3.893111,1.06342 0.863427,-0.4465 1.178217,-1.18523 1.55538,-3.65008 0.150268,-0.98203 0.527622,-2.31104 0.838566,-2.95337 2.644719,-5.46326 9.803867,-7.17308 14.638207,-3.49604 2.6978,2.05197 4.25045,5.85573 3.70058,9.06585 -0.43525,2.54097 -1.23321,3.887 -4.08314,6.88757 -6.06787,6.38858 -8.21254,10.02639 -8.26829,14.02476 -0.0203,1.45744 0.0601,1.72164 0.74125,2.43377 1.21251,1.26773 2.66331,1.28565 3.94566,0.0487 z M 81.038825,92.348676 c -1.977015,-1.205446 -1.412628,-4.359709 0.883176,-4.935919 0.912885,-0.229119 1.771286,0.05686 2.570938,0.856509 1.178606,1.178607 0.823478,3.456152 -0.658391,4.222456 -0.991837,0.512899 -1.786624,0.472233 -2.795723,-0.143046 z"
         id="path7" /></g></g></svg>
