<?xml version="1.0" encoding="utf-8"?>
<!-- Generator: Adobe Illustrator 24.0.0, SVG Export Plug-In . SVG Version: 6.00 Build 0)  -->
<svg version="1.1" id="Camada_1" xmlns="http://www.w3.org/2000/svg" xmlns:xlink="http://www.w3.org/1999/xlink" x="0px" y="0px"
	 viewBox="0 0 1000 1000" style="enable-background:new 0 0 1000 1000;" xml:space="preserve">
<style type="text/css">
	.st0{fill:#1CB36D;}
</style>
<g>
	<path class="st0" d="M38,311.54c1.69-8.17,3.01-16.44,5.13-24.49c19.97-75.93,68.41-123.56,144.45-141.83
		c82.47-19.81,173.39,26.08,208.8,103.84c5.86,12.88,2.65,24.49-8.34,30.1c-10.57,5.39-22,1.7-28.53-10.78
		c-11.71-22.38-26.59-41.76-46.99-57c-70.86-52.95-175.31-28.8-215.8,50.13c-36.95,72.04-10.38,157.94,60.74,196.4
		c3.68,1.99,7.4,3.98,10.84,6.34c10.14,6.97,12.91,18.29,7.12,28.22c-5.45,9.36-16.7,12.79-27.46,7.8
		c-34.07-15.79-61.22-39.62-81.17-71.44c-14.85-23.67-24.13-49.4-27.27-77.26c-0.16-1.39-1-2.7-1.52-4.05
		C38,335.53,38,323.54,38,311.54z"/>
	<path class="st0" d="M454.36,671.03c-3.48-3.64-5.68-6.03-7.97-8.32c-90.75-90.74-181.46-181.51-272.29-272.18
		c-15.6-15.57-25.27-33.56-27.61-55.87c-4.08-38.86,29.61-80.39,68.56-84.43c28.29-2.93,51.71,5.92,71.49,25.93
		c20.87,21.11,41.95,42.01,62.95,62.99c2.28,2.27,4.69,4.41,7.24,6.79c19.55-53.16,78.86-72.43,125.6-40.89
		c9.25-25.61,25.78-44.28,51.98-52.97c25.97-8.62,50.19-4.28,73.19,11.25c1.01-2.02,2.04-3.71,2.74-5.52
		c21.39-55.2,92.39-70.41,132.74-27.09c55.78,59.89,111.47,119.96,164.58,182.19c43.44,50.9,58.14,111.81,48.67,178.22
		c-7.38,51.76-31.15,95.12-67.89,131.75c-22.72,22.65-45.14,45.62-68.45,67.64c-44.32,41.85-97.72,62.03-158.32,62.22
		c-129.83,0.41-259.66,0.27-389.49,0.05c-46.85-0.08-75.94-39.11-63.66-84.45c10.93-40.36,40.4-65.49,82.76-71.83
		C345.1,688.44,398.9,679.72,454.36,671.03z M475.85,810.89c60.56,0,121.12-0.14,181.68,0.04c52.05,0.15,97.78-16.17,135.51-52.41
		c24.86-23.88,49.7-47.88,72.97-73.27c68.48-74.69,68.49-181.55,0.62-256.86c-41.34-45.87-83.09-91.38-124.65-137.06
		c-9.48-10.42-18.83-20.97-28.48-31.24c-14.71-15.65-37.5-16.83-53.33-2.99c-15.68,13.71-17.37,36.77-3.93,53.29
		c2.27,2.78,4.7,5.49,6.55,8.54c4.27,7.03,4.12,14.2-0.23,21.22c-4.36,7.02-10.99,11.12-18.85,9.3c-6.01-1.39-12.22-4.85-16.78-9.07
		c-14.96-13.82-28.64-29.06-43.91-42.51c-14.34-12.64-36.38-10.81-49.93,2.45c-13.86,13.56-15.4,35.42-3.41,50.71
		c2.76,3.52,5.98,6.71,9.14,9.9c11.83,11.91,23.88,23.61,35.54,35.69c9.72,10.07,10.15,22.77,1.6,31.22
		c-8.72,8.62-20.74,7.91-31.28-1.87c-1.76-1.63-3.41-3.38-5.1-5.07c-25.44-25.44-50.78-50.97-76.35-76.28
		c-16.3-16.14-37.53-17.74-53.38-4.48c-18.25,15.27-18.79,40.26-0.79,58.46c25.92,26.23,52.15,52.15,78.17,78.28
		c2.94,2.95,5.85,6.09,8.03,9.6c5.2,8.34,3.58,18.91-3.42,25.45c-6.67,6.22-17.13,7.43-24.85,2.36c-3.71-2.44-7.04-5.57-10.2-8.73
		c-65.75-65.67-131.45-131.4-197.18-197.1c-2.96-2.96-5.92-5.98-9.18-8.6c-11.8-9.5-25.11-11.3-38.83-5.58
		c-13.44,5.6-21.12,16.23-22.92,30.88c-1.82,14.82,5,25.76,15.02,35.77c102.05,101.88,203.97,203.89,306.02,305.78
		c7.05,7.04,11.72,14.56,8.61,24.77c-3.15,10.33-11.48,13.82-21.22,15.32c-28.12,4.33-56.23,8.7-84.33,13.14
		c-41.41,6.55-82.89,12.7-124.17,19.96c-23.43,4.12-39.63,23.92-40.93,47.23c-0.71,12.63,6.25,21.38,18.68,23.13
		c3.83,0.54,7.76,0.6,11.64,0.6C343.93,810.91,409.89,810.9,475.85,810.89z"/>
</g>
</svg>
